Coordinates
version=1
nRows=49
nColumns=12
inDegrees=yes

Units are S.I. units (second, meters, Newtons, ...)
Angles are in degrees

endheader
time	SC_y	SC_z	SC_x	AC_y	AC_z	AC_x	GH_y	GH_z	GH_yy	EL_x	PS_y
       0.0              -15.66           4.53          6.966           31.5         -17.34           9.12         -101.1          44.78          114.8          56.79          116.7
     0.034              -15.67          4.529          6.977          31.51         -17.34           9.12         -101.1          44.78          114.7          56.79          116.7
     0.068              -15.67          4.528          6.989          31.51         -17.34           9.12         -101.1          44.79          114.7           56.8          116.7
     0.102              -15.68          4.526          7.001          31.52         -17.34           9.12         -101.1          44.79          114.7           56.8          116.7
     0.136              -15.69          4.525          7.015          31.52         -17.34           9.12         -101.1          44.79          114.6           56.8          116.7
      0.17               -15.7          4.524          7.029          31.53         -17.34           9.12         -101.1           44.8          114.6          56.81          116.7
     0.204               -15.7          4.522          7.044          31.54         -17.33           9.12         -101.1           44.8          114.5          56.81          116.7
     0.238              -15.71          4.521           7.06          31.54         -17.33           9.12         -101.1          44.81          114.5          56.81          116.7
     0.272              -15.72          4.519          7.078          31.55         -17.33           9.12         -101.2          44.81          114.4          56.82          116.7
     0.306              -15.73          4.517          7.097          31.56         -17.33           9.12         -101.2          44.81          114.4          56.82          116.6
      0.34              -15.74          4.515          7.117          31.57         -17.33           9.12         -101.2          44.82          114.3          56.83          116.6
     0.374              -15.76          4.513          7.138          31.58         -17.33           9.12         -101.2          44.82          114.2          56.83          116.6
     0.408              -15.77          4.511          7.162          31.59         -17.33           9.12         -101.2          44.83          114.2          56.84          116.6
     0.442              -15.78          4.508          7.187           31.6         -17.32           9.12         -101.3          44.84          114.1          56.85          116.6
     0.476               -15.8          4.506          7.214          31.61         -17.32           9.12         -101.3          44.84          114.0          56.85          116.6
      0.51              -15.82          4.503          7.244          31.63         -17.32           9.12         -101.3          44.85          113.9          56.86          116.6
     0.544              -15.83            4.5          7.276          31.64         -17.32          9.119         -101.4          44.86          113.8          56.87          116.5
     0.578              -15.85          4.496          7.311          31.66         -17.32          9.119         -101.4          44.87          113.7          56.88          116.5
     0.612              -15.87          4.493          7.349          31.67         -17.31          9.119         -101.4          44.88          113.5          56.89          116.5
     0.646               -15.9          4.489          7.391          31.69         -17.31          9.119         -101.5          44.89          113.4           56.9          116.5
      0.68              -15.92          4.484          7.437          31.71         -17.31          9.119         -101.5           44.9          113.3          56.91          116.5
     0.714              -15.95          4.479          7.487          31.74          -17.3          9.119         -101.6          44.91          113.1          56.92          116.4
     0.748              -15.98          4.474          7.543          31.76          -17.3          9.119         -101.6          44.92          112.9          56.94          116.4
     0.782              -16.02          4.468          7.605          31.79         -17.29          9.118         -101.7          44.94          112.7          56.95          116.4
     0.816              -16.05          4.461          7.674          31.82         -17.29          9.118         -101.7          44.96          112.5          56.97          116.3
      0.85               -16.1          4.454           7.75          31.86         -17.28          9.118         -101.8          44.98          112.2          56.99          116.3
     0.884              -16.14          4.445          7.836           31.9         -17.28          9.118         -101.9           45.0          112.0          57.01          116.2
     0.918               -16.2          4.436          7.933          31.94         -17.27          9.117         -102.0          45.02          111.7          57.04          116.2
     0.952              -16.26          4.425          8.042          31.99         -17.26          9.117         -102.1          45.05          111.3          57.07          116.1
     0.986              -16.33          4.413          8.166          32.05         -17.25          9.117         -102.2          45.08          110.9           57.1          116.1
      1.02              -16.41          4.399          8.308          32.11         -17.24          9.116         -102.3          45.11          110.4          57.13          116.0
     1.054               -16.5          4.384           8.47          32.19         -17.23          9.116         -102.5          45.15          109.9          57.18          115.9
     1.088               -16.6          4.365          8.658          32.27         -17.22          9.115         -102.7           45.2          109.3          57.22          115.8
     1.122              -16.72          4.344          8.876          32.37          -17.2          9.115         -102.9          45.25          108.6          57.28          115.7
     1.156              -16.86          4.319          9.131          32.49         -17.18          9.114         -103.1          45.32          107.8          57.34          115.6
      1.19              -17.03           4.29          9.432          32.62         -17.16          9.113         -103.4          45.39          106.8          57.42          115.4
     1.224              -17.23          4.255          9.789          32.79         -17.14          9.112         -103.8          45.48          105.6          57.51          115.2
     1.258              -17.46          4.214          10.22          32.98         -17.11          9.111         -104.2          45.58          104.3          57.62          115.0
     1.292              -17.75          4.163          10.74          33.22         -17.07          9.109         -104.7          45.71          102.6          57.76          114.7
     1.326               -18.1          4.102          11.37          33.51         -17.02          9.107         -105.3          45.87          100.5          57.92          114.4
      1.36              -18.53          4.026          12.15          33.86         -16.97          9.105         -106.0          46.06           98.0          58.12          114.0
     1.394              -19.07          3.931          13.12          34.31          -16.9          9.102         -106.9           46.3          94.85          58.37          113.4
     1.428              -19.75          3.811          14.35          34.87         -16.81          9.099         -108.1          46.61          90.88          58.68          112.8
     1.462              -20.62           3.66          15.91          35.58         -16.69          9.094         -109.6          46.99          85.83          59.08          111.9
     1.496              -21.73          3.465          17.91          36.49         -16.55          9.088         -111.5          47.48          79.36          59.59          110.9
      1.53              -23.15          3.216          20.47          37.66         -16.37           9.08         -114.0          48.12          71.07          60.25          109.5
     1.564              -24.96          2.897          23.74          39.15         -16.13          9.071         -117.1          48.93          60.47          61.09          107.8
     1.598              -27.24          2.497          27.86          41.02         -15.83          9.059         -121.0          49.94          47.15          62.14          105.6
     1.632              -30.02          2.009          32.88          43.31         -15.47          9.044         -125.8          51.18          30.91          63.43          102.9
